<svg width="24" height="24" viewBox="0 0 24 24" fill="none" xmlns="http://www.w3.org/2000/svg">
<path d="M8.0015 12.2324L15.0013 12.1769M8.03317 16.2322L12.413 16.1976M10.8806 2.00924L9.92068 2.01684C8.92071 2.02476 7.92074 2.03268 7.93658 4.03262C7.95241 6.03255 8.95238 6.02464 9.95235 6.01672L13.9522 5.98505C15.9522 5.96921 15.9442 4.96924 15.9363 3.96928C15.9205 1.96934 14.9205 1.97726 13.9206 1.98517M2.98424 10.072C2.94813 5.51216 4.60826 4.25897 7.93673 4.05262" stroke="#191919" stroke-width="1.5" stroke-miterlimit="10" stroke-linecap="round" stroke-linejoin="round"/>
<path d="M15.9371 3.98887C19.2684 4.1425 20.9481 5.35924 20.9843 9.9291L21.0318 15.9289C21.0635 19.9288 20.0793 21.9366 15.0795 21.9762L9.07967 22.0237C4.07982 22.0633 3.06402 20.0713 3.03235 16.0714L3.0158 13.9815" stroke="#191919" stroke-width="1.5" stroke-miterlimit="10" stroke-linecap="round" stroke-linejoin="round"/>
</svg>
