<svg width="36" height="36" viewBox="0 0 36 36" fill="none" xmlns="http://www.w3.org/2000/svg">
<path d="M27.4503 8.56436C27.3116 8.4253 27.1467 8.31498 26.9653 8.23971C26.7838 8.16444 26.5893 8.12569 26.3928 8.12569C26.1964 8.12569 26.0019 8.16444 25.8204 8.23971C25.6389 8.31498 25.4741 8.4253 25.3353 8.56436L18.0003 15.8844L10.6653 8.54936C10.5265 8.41049 10.3616 8.30033 10.1802 8.22517C9.9987 8.15001 9.80423 8.11133 9.60784 8.11133C9.41144 8.11133 9.21697 8.15001 9.03552 8.22517C8.85407 8.30033 8.68921 8.41049 8.55034 8.54936C8.41146 8.68823 8.3013 8.8531 8.22614 9.03454C8.15099 9.21599 8.1123 9.41046 8.1123 9.60686C8.1123 9.80326 8.15099 9.99773 8.22614 10.1792C8.3013 10.3606 8.41146 10.5255 8.55034 10.6644L15.8853 17.9994L8.55034 25.3344C8.41146 25.4732 8.3013 25.6381 8.22614 25.8195C8.15099 26.001 8.1123 26.1955 8.1123 26.3919C8.1123 26.5883 8.15099 26.7827 8.22614 26.9642C8.3013 27.1456 8.41146 27.3105 8.55034 27.4494C8.68921 27.5882 8.85407 27.6984 9.03552 27.7735C9.21697 27.8487 9.41144 27.8874 9.60784 27.8874C9.80423 27.8874 9.9987 27.8487 10.1802 27.7735C10.3616 27.6984 10.5265 27.5882 10.6653 27.4494L18.0003 20.1144L25.3353 27.4494C25.4742 27.5882 25.6391 27.6984 25.8205 27.7735C26.002 27.8487 26.1964 27.8874 26.3928 27.8874C26.5892 27.8874 26.7837 27.8487 26.9651 27.7735C27.1466 27.6984 27.3115 27.5882 27.4503 27.4494C27.5892 27.3105 27.6994 27.1456 27.7745 26.9642C27.8497 26.7827 27.8884 26.5883 27.8884 26.3919C27.8884 26.1955 27.8497 26.001 27.7745 25.8195C27.6994 25.6381 27.5892 25.4732 27.4503 25.3344L20.1153 17.9994L27.4503 10.6644C28.0203 10.0944 28.0203 9.13436 27.4503 8.56436Z" fill="black"/>
</svg>
