<svg width="24" height="24" viewBox="0 0 24 24" fill="none" xmlns="http://www.w3.org/2000/svg">
<path d="M17.3694 10.1714L18.7094 8.75139C20.1294 7.25139 20.7694 5.54139 18.5594 3.45139C16.3494 1.37139 14.6794 2.10139 13.2594 3.60139L5.04936 12.2914C4.73936 12.6214 4.43936 13.2714 4.37936 13.7214L4.00936 16.9614C3.87936 18.1314 4.71936 18.9314 5.87936 18.7314L9.09936 18.1814C9.54936 18.1014 10.1794 17.7714 10.4894 17.4314L14.4394 13.2514" stroke="#191919" stroke-width="1.5" stroke-miterlimit="10" stroke-linecap="round" stroke-linejoin="round"/>
<path d="M11.89 5.0498C12.0996 6.39066 12.7486 7.62394 13.735 8.55605C14.7214 9.48816 15.9894 10.0663 17.34 10.1998M3 21.9998H14M18 21.9998H21" stroke="#191919" stroke-width="1.5" stroke-miterlimit="10" stroke-linecap="round" stroke-linejoin="round"/>
</svg>
