<svg width="24" height="24" viewBox="0 0 24 24" fill="none" xmlns="http://www.w3.org/2000/svg">
<path d="M20.59 4.97124C21.47 5.96124 22 7.26124 22 8.69124C22 15.6912 15.52 19.8212 12.62 20.8212C12.28 20.9412 11.72 20.9412 11.38 20.8212C8.48 19.8212 2 15.6912 2 8.69124C2 5.60124 4.49 3.10124 7.56 3.10124C9.38 3.10124 10.99 3.98124 12 5.34124C12.5138 4.64712 13.183 4.08297 13.954 3.69399C14.725 3.305 15.5764 3.102 16.44 3.10124" fill="#DE3131"/>
<path d="M20.59 4.97124C21.47 5.96124 22 7.26124 22 8.69124C22 15.6912 15.52 19.8212 12.62 20.8212C12.28 20.9412 11.72 20.9412 11.38 20.8212C8.48 19.8212 2 15.6912 2 8.69124C2 5.60124 4.49 3.10124 7.56 3.10124C9.38 3.10124 10.99 3.98124 12 5.34124C12.5138 4.64712 13.183 4.08297 13.954 3.69399C14.725 3.305 15.5764 3.102 16.44 3.10124C17.3533 3.04859 19.462 3.34888 20.59 4.97124Z" stroke="#191919" stroke-width="1.5" stroke-linecap="round" stroke-linejoin="round"/>
</svg>
