<svg width="24" height="24" viewBox="0 0 24 24" fill="none" xmlns="http://www.w3.org/2000/svg">
<path d="M15.1189 10.3114C15.1189 12.0314 13.7289 13.4314 11.9989 13.4314C10.2689 13.4314 8.87891 12.0414 8.87891 10.3114C8.87891 8.58141 10.2789 7.19141 11.9989 7.19141C12.3389 7.19141 12.6689 7.24141 12.9689 7.34141" stroke="#767676" stroke-width="1.5" stroke-linecap="round" stroke-linejoin="round"/>
<path d="M5.97996 4.30006C10.35 0.190061 18.82 1.60006 20.38 8.51006C21.53 13.5901 18.37 17.8901 15.6 20.5501C14.632 21.4836 13.3397 22.0053 11.995 22.0053C10.6502 22.0053 9.35789 21.4836 8.38996 20.5501C5.62996 17.8801 2.45996 13.5801 3.61996 8.50006" stroke="#767676" stroke-width="1.5" stroke-linecap="round" stroke-linejoin="round"/>
</svg>
