<svg width="24" height="24" viewBox="0 0 24 24" fill="none" xmlns="http://www.w3.org/2000/svg">
<path d="M4.27 18.68C5.43083 20.0881 7.05134 21.0415 8.84608 21.3721C10.6408 21.7027 12.4946 21.3893 14.081 20.4872C15.6674 19.5851 16.8845 18.1521 17.518 16.4406C18.1516 14.7292 18.1608 12.8491 17.5441 11.1315C16.9275 9.41391 15.7245 7.96903 14.1471 7.05137C12.5696 6.13371 10.719 5.80214 8.92106 6.11508C7.12315 6.42801 5.49335 7.36537 4.31874 8.76203C3.14413 10.1587 2.50007 11.9251 2.5 13.75M21.5 2.5L16 8M21.5 2.5H15M21.5 2.5V9" stroke="#767676" stroke-width="1.5" stroke-linecap="round" stroke-linejoin="round"/>
</svg>
