<svg width="24" height="24" viewBox="0 0 24 24" fill="none" xmlns="http://www.w3.org/2000/svg">
<path d="M18.0196 11.8002V8.91016C18.0196 5.61016 15.3196 2.91016 12.0196 2.91016C8.7096 2.91016 6.0196 5.60016 6.0196 8.91016V11.8002C6.0196 12.4102 5.7596 13.3402 5.4496 13.8602L4.2996 15.7702C3.5896 16.9502 4.0796 18.2602 5.3796 18.7002C9.6896 20.1402 14.3396 20.1402 18.6496 18.7002C19.8596 18.3002 20.3896 16.8702 19.7296 15.7702" stroke="#191919" stroke-width="1.5" stroke-miterlimit="10" stroke-linecap="round"/>
<path d="M13.8699 3.20141C12.6606 2.857 11.3792 2.857 10.1699 3.20141C10.4599 2.46141 11.1799 1.94141 12.0199 1.94141C12.8599 1.94141 13.5799 2.46141 13.8699 3.20141Z" stroke="#191919" stroke-width="1.5" stroke-miterlimit="10" stroke-linecap="round" stroke-linejoin="round"/>
<path d="M15.0195 19.0586C15.0195 20.7086 13.6695 22.0586 12.0195 22.0586C11.1995 22.0586 10.4395 21.7186 9.89953 21.1786C9.33769 20.6159 9.02132 19.8538 9.01953 19.0586" stroke="#191919" stroke-width="1.5" stroke-miterlimit="10"/>
</svg>
