<svg width="24" height="24" viewBox="0 0 24 24" fill="none" xmlns="http://www.w3.org/2000/svg">
<path d="M5.76187 8.80898L4.55187 10.019C2.21187 12.359 2.21187 16.159 4.55187 18.509M12.3299 12.152L9.85987 14.622C9.53424 14.9467 9.27587 15.3324 9.09958 15.7571C8.92329 16.1818 8.83255 16.6371 8.83255 17.097C8.83255 17.5568 8.92329 18.0121 9.09958 18.4369C9.27587 18.8616 9.53424 19.2473 9.85987 19.572C10.1845 19.8976 10.5703 20.156 10.995 20.3323C11.4197 20.5086 11.875 20.5993 12.3349 20.5993C12.7947 20.5993 13.25 20.5086 13.6747 20.3323C14.0995 20.156 14.4852 19.8976 14.8099 19.572L18.6999 15.682C20.0111 14.3683 20.7475 12.5881 20.7475 10.732C20.7475 8.87591 20.0111 7.09567 18.6999 5.78199C17.3862 4.47079 15.6059 3.73438 13.7499 3.73438C11.8938 3.73438 10.1136 4.47079 8.79988 5.78199" stroke="black" stroke-width="1.5" stroke-linecap="round" stroke-linejoin="round"/>
</svg>
