<svg width="24" height="24" viewBox="0 0 24 24" fill="none" xmlns="http://www.w3.org/2000/svg">
<path d="M16.9684 14.44C18.3384 14.67 19.8484 14.43 20.9084 13.72C22.3184 12.78 22.3184 11.24 20.9084 10.3C19.8384 9.59 18.3084 9.35 16.9384 9.59M7.00141 14.44C5.63141 14.67 4.12141 14.43 3.06141 13.72C1.65141 12.78 1.65141 11.24 3.06141 10.3C4.13141 9.59 5.66141 9.35 7.03141 9.59M14.9094 17.78C13.3194 16.72 10.6894 16.72 9.08941 17.78C7.67941 18.72 7.67941 20.26 9.08941 21.2C10.6894 22.27 13.3094 22.27 14.9094 21.2M17.9984 7.16C17.9355 7.14999 17.8713 7.14999 17.8084 7.16C17.141 7.13587 16.5092 6.85321 16.0464 6.37176C15.5836 5.89032 15.3262 5.2478 15.3284 4.58C15.3284 3.15 16.4784 2 17.9084 2C18.5927 2 19.2489 2.27182 19.7327 2.75566C20.2166 3.23951 20.4884 3.89574 20.4884 4.58C20.4866 5.24827 20.2264 5.88996 19.7623 6.37081C19.2982 6.85167 18.6662 7.13445 17.9984 7.16ZM5.97041 7.16C6.03041 7.15 6.10041 7.15 6.16041 7.16C6.82777 7.13587 7.45961 6.85321 7.9224 6.37176C8.38519 5.89032 8.64266 5.2478 8.64041 4.58C8.64041 3.15 7.49041 2 6.06041 2C5.37615 2 4.71991 2.27182 4.23607 2.75566C3.75223 3.23951 3.48041 3.89574 3.48041 4.58C3.49041 5.98 4.59041 7.11 5.97041 7.16ZM11.9984 14.629C11.9355 14.619 11.8713 14.619 11.8084 14.629C11.141 14.6049 10.5092 14.3222 10.0464 13.8408C9.58363 13.3593 9.32615 12.7168 9.32841 12.049C9.32841 10.619 10.4784 9.469 11.9084 9.469C12.5927 9.469 13.2489 9.74082 13.7327 10.2247C14.2166 10.7085 14.4884 11.3647 14.4884 12.049C14.4784 13.449 13.3784 14.589 11.9984 14.629Z" stroke="#191919" stroke-width="1.5" stroke-linecap="round" stroke-linejoin="round"/>
</svg>
