<svg width="24" height="24" viewBox="0 0 24 24" fill="none" xmlns="http://www.w3.org/2000/svg">
<path d="M2 8C2 4 3 3 7 3H17C21 3 22 4 22 8V16C22 20 21 21 17 21H7C3 21 2 20 2 16V12.4M14 8H19M15 12H19M17 16H19" stroke="#191919" stroke-width="1.5" stroke-linecap="round" stroke-linejoin="round"/>
<path d="M12 16.3319C11.9327 15.6299 11.6219 14.9737 11.1214 14.4768C10.621 13.98 9.96243 13.674 9.26 13.6119C8.75457 13.5619 8.24543 13.5619 7.74 13.6119C7.03826 13.6759 6.38078 13.9825 5.88069 14.479C5.3806 14.9754 5.06918 15.6306 5 16.3319M8.5 11.2919C8.98004 11.2919 9.44042 11.1012 9.77986 10.7617C10.1193 10.4223 10.31 9.96192 10.31 9.48188C10.31 9.00183 10.1193 8.54145 9.77986 8.20201C9.44042 7.86257 8.98004 7.67188 8.5 7.67188C8.01996 7.67188 7.55958 7.86257 7.22014 8.20201C6.8807 8.54145 6.69 9.00183 6.69 9.48188C6.69 9.96192 6.8807 10.4223 7.22014 10.7617C7.55958 11.1012 8.01996 11.2919 8.5 11.2919Z" stroke="#191919" stroke-width="1.5" stroke-linecap="round" stroke-linejoin="round"/>
</svg>
