<svg width="24" height="24" viewBox="0 0 24 24" fill="none" xmlns="http://www.w3.org/2000/svg">
<path d="M19.0821 4.55553C18.6275 4.19225 18.0713 3.99695 17.5 4.00004C16.0541 4.00004 14.8807 5.23203 14.8807 6.75003C14.8807 8.26802 16.0541 9.50002 17.5 9.50002C18.9459 9.50002 20.1193 8.26802 20.1193 6.75003M22 15C22 12.8715 19.9831 11.15 17.5 11.15C15.0169 11.15 13 12.8715 13 15" stroke="#191919" stroke-width="1.5" stroke-linecap="round" stroke-linejoin="round"/>
<path d="M9.10943 6.70704C8.50333 6.24468 7.7617 5.99612 7 6.00005C5.07218 6.00005 3.50757 7.56804 3.50757 9.50003C3.50757 11.432 5.07218 13 7 13C8.92782 13 10.4924 11.432 10.4924 9.50003M13 20C13 17.291 10.3108 15.1 7 15.1C3.68917 15.1 1 17.291 1 20" stroke="#191919" stroke-width="1.5" stroke-linecap="round" stroke-linejoin="round"/>
</svg>
