<svg width="24" height="24" viewBox="0 0 24 24" fill="none" xmlns="http://www.w3.org/2000/svg">
<path d="M15.0202 3.01007C14.1524 2.34954 13.0907 1.99445 12.0002 2.00007C9.24016 2.00007 7.00016 4.24007 7.00016 7.00007C7.00016 9.76007 9.24016 12.0001 12.0002 12.0001C14.7602 12.0001 17.0002 9.76007 17.0002 7.00007M3.41016 22.0001C3.41016 18.1301 7.26016 15.0001 12.0002 15.0001C12.9602 15.0001 13.8902 15.1301 14.7602 15.3701" stroke="black" stroke-width="1.5" stroke-linecap="round" stroke-linejoin="round"/>
<path d="M19.492 17.98H16.512M18 16.52V19.51M22 18C22 18.32 21.96 18.63 21.88 18.93C21.79 19.33 21.63 19.72 21.42 20.06C21.0675 20.6525 20.5667 21.143 19.967 21.4831C19.3674 21.8233 18.6894 22.0014 18 22C17.0155 22.0029 16.0659 21.6352 15.34 20.97C15.04 20.71 14.78 20.4 14.58 20.06C14.1993 19.4404 13.9985 18.7272 14 18C13.9994 17.4745 14.1024 16.9541 14.3031 16.4685C14.5039 15.9829 14.7985 15.5417 15.1701 15.1701C15.5417 14.7985 15.9829 14.5039 16.4685 14.3031C16.9541 14.1024 17.4745 13.9993 18 14C19.18 14 20.25 14.51 20.97 15.33C21.61 16.04 22 16.98 22 18Z" stroke="black" stroke-width="1.5" stroke-miterlimit="10" stroke-linecap="round" stroke-linejoin="round"/>
</svg>
