<svg width="24" height="24" viewBox="0 0 24 24" fill="none" xmlns="http://www.w3.org/2000/svg">
<path d="M15.0202 3.01007C14.1524 2.34954 13.0907 1.99445 12.0002 2.00007C9.24016 2.00007 7.00016 4.24007 7.00016 7.00007C7.00016 9.76007 9.24016 12.0001 12.0002 12.0001C14.7602 12.0001 17.0002 9.76007 17.0002 7.00007M3.41016 22.0001C3.41016 18.1301 7.26016 15.0001 12.0002 15.0001M22.0002 22.0001L21.0002 21.0001M18.2002 21.4001C19.0488 21.4001 19.8628 21.0629 20.4629 20.4628C21.063 19.8627 21.4002 19.0488 21.4002 18.2001C21.4002 17.3514 21.063 16.5374 20.4629 15.9373C19.8628 15.3372 19.0488 15.0001 18.2002 15.0001C17.3515 15.0001 16.5375 15.3372 15.9374 15.9373C15.3373 16.5374 15.0002 17.3514 15.0002 18.2001C15.0002 19.0488 15.3373 19.8627 15.9374 20.4628C16.5375 21.0629 17.3515 21.4001 18.2002 21.4001Z" stroke="black" stroke-width="1.5" stroke-linecap="round" stroke-linejoin="round"/>
</svg>
