<svg width="24" height="24" viewBox="0 0 24 24" fill="none" xmlns="http://www.w3.org/2000/svg">
<path d="M16.9712 7.49394C16.9712 4.29183 14.7465 3.06686 12.0383 4.76462L8.90012 6.73102C8.55622 6.93518 8.15858 7.05338 7.76094 7.05338H6.22411C4.0747 7.05338 3 8.12791 3 10.277V14.5751C3 16.7242 4.0747 17.7987 6.22411 17.7987H7.76094C8.15858 17.7987 8.55622 17.9169 8.90012 18.1211L12.0383 20.0875C14.7465 21.7852 16.9712 20.5495 16.9712 17.3581V12.05M20.1953 8.12576C21.1265 9.36528 21.63 10.8736 21.63 12.4239C21.63 13.9742 21.1265 15.4825 20.1953 16.722" stroke="#191919" stroke-width="1.5" stroke-linecap="round" stroke-linejoin="round"/>
</svg>
